<mxfile host="app.diagrams.net" modified="2021-04-19T13:08:28.004Z" agent="5.0 (Windows NT 10.0; Win64; x64) AppleWebKit/537.36 (KHTML, like Gecko) Chrome/89.0.4389.114 Safari/537.36" etag="PUHqIZ4kF4OLzrJxsJ_l" version="14.5.10" type="github">
  <diagram id="diijmVLBqkbmuVa88mqW" name="Page-1">
    <mxGraphModel dx="1185" dy="635" grid="1" gridSize="10" guides="1" tooltips="1" connect="1" arrows="1" fold="1" page="1" pageScale="1" pageWidth="827" pageHeight="1169" math="0" shadow="0">
      <root>
        <mxCell id="0" />
        <mxCell id="1" parent="0" />
        <mxCell id="uU9plVafASLb35xvYlGo-3" style="edgeStyle=orthogonalEdgeStyle;rounded=0;orthogonalLoop=1;jettySize=auto;html=1;exitX=0.5;exitY=1;exitDx=0;exitDy=0;exitPerimeter=0;entryX=0.5;entryY=0;entryDx=0;entryDy=0;" edge="1" parent="1" source="uU9plVafASLb35xvYlGo-1" target="uU9plVafASLb35xvYlGo-2">
          <mxGeometry relative="1" as="geometry" />
        </mxCell>
        <mxCell id="uU9plVafASLb35xvYlGo-1" value="启动" style="strokeWidth=2;html=1;shape=mxgraph.flowchart.start_2;whiteSpace=wrap;fillColor=none;" vertex="1" parent="1">
          <mxGeometry x="280" y="80" width="40" height="40" as="geometry" />
        </mxCell>
        <mxCell id="uU9plVafASLb35xvYlGo-8" style="edgeStyle=orthogonalEdgeStyle;rounded=0;orthogonalLoop=1;jettySize=auto;html=1;exitX=0.5;exitY=1;exitDx=0;exitDy=0;entryX=0.5;entryY=0;entryDx=0;entryDy=0;" edge="1" parent="1" source="uU9plVafASLb35xvYlGo-2" target="uU9plVafASLb35xvYlGo-6">
          <mxGeometry relative="1" as="geometry" />
        </mxCell>
        <mxCell id="uU9plVafASLb35xvYlGo-9" style="edgeStyle=orthogonalEdgeStyle;rounded=0;orthogonalLoop=1;jettySize=auto;html=1;exitX=0.5;exitY=1;exitDx=0;exitDy=0;entryX=0.5;entryY=0;entryDx=0;entryDy=0;" edge="1" parent="1" source="uU9plVafASLb35xvYlGo-2" target="uU9plVafASLb35xvYlGo-7">
          <mxGeometry relative="1" as="geometry" />
        </mxCell>
        <mxCell id="uU9plVafASLb35xvYlGo-2" value="拉取通用配置&lt;br&gt;(splash_ad字段)" style="rounded=1;whiteSpace=wrap;html=1;absoluteArcSize=1;arcSize=14;strokeWidth=2;fillColor=none;" vertex="1" parent="1">
          <mxGeometry x="240" y="160" width="120" height="40" as="geometry" />
        </mxCell>
        <mxCell id="uU9plVafASLb35xvYlGo-15" value="成功" style="edgeStyle=orthogonalEdgeStyle;rounded=0;orthogonalLoop=1;jettySize=auto;html=1;exitX=0.5;exitY=1;exitDx=0;exitDy=0;exitPerimeter=0;" edge="1" parent="1" source="uU9plVafASLb35xvYlGo-4" target="uU9plVafASLb35xvYlGo-14">
          <mxGeometry relative="1" as="geometry" />
        </mxCell>
        <mxCell id="uU9plVafASLb35xvYlGo-4" value="登录" style="strokeWidth=2;html=1;shape=mxgraph.flowchart.start_2;whiteSpace=wrap;fillColor=none;" vertex="1" parent="1">
          <mxGeometry x="560" y="80" width="40" height="40" as="geometry" />
        </mxCell>
        <mxCell id="uU9plVafASLb35xvYlGo-11" style="edgeStyle=orthogonalEdgeStyle;rounded=0;orthogonalLoop=1;jettySize=auto;html=1;exitX=0.5;exitY=1;exitDx=0;exitDy=0;" edge="1" parent="1" source="uU9plVafASLb35xvYlGo-6" target="uU9plVafASLb35xvYlGo-12">
          <mxGeometry relative="1" as="geometry">
            <mxPoint x="300" y="320" as="targetPoint" />
          </mxGeometry>
        </mxCell>
        <mxCell id="uU9plVafASLb35xvYlGo-6" value="保存拉取广告间隔&lt;br&gt;(refresh_ad_list_interval)" style="rounded=1;whiteSpace=wrap;html=1;absoluteArcSize=1;arcSize=14;strokeWidth=2;fillColor=none;strokeColor=#9999FF;" vertex="1" parent="1">
          <mxGeometry x="160" y="240" width="120" height="40" as="geometry" />
        </mxCell>
        <mxCell id="uU9plVafASLb35xvYlGo-13" style="edgeStyle=orthogonalEdgeStyle;rounded=0;orthogonalLoop=1;jettySize=auto;html=1;exitX=0.5;exitY=1;exitDx=0;exitDy=0;" edge="1" parent="1" source="uU9plVafASLb35xvYlGo-7" target="uU9plVafASLb35xvYlGo-12">
          <mxGeometry relative="1" as="geometry" />
        </mxCell>
        <mxCell id="uU9plVafASLb35xvYlGo-7" value="保存展示广告间隔&lt;br&gt;(show_ad_interval)" style="rounded=1;whiteSpace=wrap;html=1;absoluteArcSize=1;arcSize=14;strokeWidth=2;fillColor=none;strokeColor=#66CC00;" vertex="1" parent="1">
          <mxGeometry x="320" y="240" width="120" height="40" as="geometry" />
        </mxCell>
        <mxCell id="uU9plVafASLb35xvYlGo-12" value="结束" style="strokeWidth=2;html=1;shape=mxgraph.flowchart.terminator;whiteSpace=wrap;fillColor=none;" vertex="1" parent="1">
          <mxGeometry x="280" y="320" width="40" height="40" as="geometry" />
        </mxCell>
        <mxCell id="uU9plVafASLb35xvYlGo-18" style="edgeStyle=orthogonalEdgeStyle;rounded=0;orthogonalLoop=1;jettySize=auto;html=1;exitX=0.5;exitY=1;exitDx=0;exitDy=0;entryX=0.5;entryY=0;entryDx=0;entryDy=0;entryPerimeter=0;" edge="1" parent="1" source="uU9plVafASLb35xvYlGo-14" target="uU9plVafASLb35xvYlGo-17">
          <mxGeometry relative="1" as="geometry" />
        </mxCell>
        <mxCell id="uU9plVafASLb35xvYlGo-14" value="获取上次&lt;br&gt;拉取广告时间" style="rounded=1;whiteSpace=wrap;html=1;absoluteArcSize=1;arcSize=14;strokeWidth=2;fillColor=none;" vertex="1" parent="1">
          <mxGeometry x="520" y="160" width="120" height="40" as="geometry" />
        </mxCell>
        <mxCell id="uU9plVafASLb35xvYlGo-22" style="edgeStyle=orthogonalEdgeStyle;rounded=0;orthogonalLoop=1;jettySize=auto;html=1;exitX=1;exitY=0.5;exitDx=0;exitDy=0;exitPerimeter=0;entryX=1;entryY=0.5;entryDx=0;entryDy=0;entryPerimeter=0;" edge="1" parent="1" source="uU9plVafASLb35xvYlGo-17" target="uU9plVafASLb35xvYlGo-21">
          <mxGeometry relative="1" as="geometry">
            <Array as="points">
              <mxPoint x="700" y="260" />
              <mxPoint x="700" y="660" />
            </Array>
          </mxGeometry>
        </mxCell>
        <mxCell id="uU9plVafASLb35xvYlGo-52" value="N" style="edgeLabel;html=1;align=center;verticalAlign=middle;resizable=0;points=[];" vertex="1" connectable="0" parent="uU9plVafASLb35xvYlGo-22">
          <mxGeometry x="-0.9435" y="-2" relative="1" as="geometry">
            <mxPoint x="24" y="-2" as="offset" />
          </mxGeometry>
        </mxCell>
        <mxCell id="uU9plVafASLb35xvYlGo-24" value="Y" style="edgeStyle=orthogonalEdgeStyle;rounded=0;orthogonalLoop=1;jettySize=auto;html=1;exitX=0.5;exitY=1;exitDx=0;exitDy=0;exitPerimeter=0;entryX=0.5;entryY=0;entryDx=0;entryDy=0;" edge="1" parent="1" source="uU9plVafASLb35xvYlGo-17" target="uU9plVafASLb35xvYlGo-23">
          <mxGeometry relative="1" as="geometry" />
        </mxCell>
        <mxCell id="uU9plVafASLb35xvYlGo-17" value="是否达到间隔？" style="strokeWidth=2;html=1;shape=mxgraph.flowchart.decision;whiteSpace=wrap;fillColor=none;strokeColor=#9999FF;" vertex="1" parent="1">
          <mxGeometry x="520" y="240" width="120" height="40" as="geometry" />
        </mxCell>
        <mxCell id="uU9plVafASLb35xvYlGo-21" value="结束" style="strokeWidth=2;html=1;shape=mxgraph.flowchart.terminator;whiteSpace=wrap;fillColor=none;" vertex="1" parent="1">
          <mxGeometry x="560" y="640" width="40" height="40" as="geometry" />
        </mxCell>
        <mxCell id="uU9plVafASLb35xvYlGo-26" style="edgeStyle=orthogonalEdgeStyle;rounded=0;orthogonalLoop=1;jettySize=auto;html=1;exitX=0.5;exitY=1;exitDx=0;exitDy=0;" edge="1" parent="1" source="uU9plVafASLb35xvYlGo-23" target="uU9plVafASLb35xvYlGo-25">
          <mxGeometry relative="1" as="geometry" />
        </mxCell>
        <mxCell id="uU9plVafASLb35xvYlGo-23" value="请求广告数据&lt;br&gt;(/ad/get-splash-ad)" style="rounded=1;whiteSpace=wrap;html=1;absoluteArcSize=1;arcSize=14;strokeWidth=2;fillColor=none;" vertex="1" parent="1">
          <mxGeometry x="520" y="320" width="120" height="40" as="geometry" />
        </mxCell>
        <mxCell id="uU9plVafASLb35xvYlGo-28" style="edgeStyle=orthogonalEdgeStyle;rounded=0;orthogonalLoop=1;jettySize=auto;html=1;exitX=0.5;exitY=1;exitDx=0;exitDy=0;" edge="1" parent="1" source="uU9plVafASLb35xvYlGo-25" target="uU9plVafASLb35xvYlGo-27">
          <mxGeometry relative="1" as="geometry" />
        </mxCell>
        <mxCell id="uU9plVafASLb35xvYlGo-25" value="更新&lt;br&gt;拉取广告时间" style="rounded=1;whiteSpace=wrap;html=1;absoluteArcSize=1;arcSize=14;strokeWidth=2;fillColor=none;" vertex="1" parent="1">
          <mxGeometry x="520" y="400" width="120" height="40" as="geometry" />
        </mxCell>
        <mxCell id="uU9plVafASLb35xvYlGo-34" style="edgeStyle=orthogonalEdgeStyle;rounded=0;orthogonalLoop=1;jettySize=auto;html=1;exitX=0.5;exitY=1;exitDx=0;exitDy=0;" edge="1" parent="1" source="uU9plVafASLb35xvYlGo-27" target="uU9plVafASLb35xvYlGo-33">
          <mxGeometry relative="1" as="geometry" />
        </mxCell>
        <mxCell id="uU9plVafASLb35xvYlGo-27" value="删去没有在响应中的&lt;br&gt;本地记录" style="rounded=1;whiteSpace=wrap;html=1;absoluteArcSize=1;arcSize=14;strokeWidth=2;fillColor=none;" vertex="1" parent="1">
          <mxGeometry x="520" y="480" width="120" height="40" as="geometry" />
        </mxCell>
        <mxCell id="uU9plVafASLb35xvYlGo-29" value="&lt;i&gt;&lt;font color=&quot;#b5739d&quot;&gt;支持下架能力&lt;/font&gt;&lt;/i&gt;" style="text;html=1;strokeColor=none;fillColor=none;align=center;verticalAlign=middle;whiteSpace=wrap;rounded=0;" vertex="1" parent="1">
          <mxGeometry x="600" y="460" width="80" height="20" as="geometry" />
        </mxCell>
        <mxCell id="uU9plVafASLb35xvYlGo-30" value="&lt;i&gt;&lt;font color=&quot;#b5739d&quot;&gt;兜底1小时&lt;/font&gt;&lt;/i&gt;" style="text;html=1;strokeColor=none;fillColor=none;align=center;verticalAlign=middle;whiteSpace=wrap;rounded=0;" vertex="1" parent="1">
          <mxGeometry x="600" y="220" width="80" height="20" as="geometry" />
        </mxCell>
        <mxCell id="uU9plVafASLb35xvYlGo-35" style="edgeStyle=orthogonalEdgeStyle;rounded=0;orthogonalLoop=1;jettySize=auto;html=1;exitX=0.5;exitY=1;exitDx=0;exitDy=0;entryX=0.5;entryY=0;entryDx=0;entryDy=0;entryPerimeter=0;" edge="1" parent="1" source="uU9plVafASLb35xvYlGo-33" target="uU9plVafASLb35xvYlGo-21">
          <mxGeometry relative="1" as="geometry" />
        </mxCell>
        <mxCell id="uU9plVafASLb35xvYlGo-33" value="更新广告数据" style="rounded=1;whiteSpace=wrap;html=1;absoluteArcSize=1;arcSize=14;strokeWidth=2;fillColor=none;" vertex="1" parent="1">
          <mxGeometry x="520" y="560" width="120" height="40" as="geometry" />
        </mxCell>
        <mxCell id="uU9plVafASLb35xvYlGo-36" value="闪屏广告记录" style="swimlane;fontStyle=1;align=center;verticalAlign=top;childLayout=stackLayout;horizontal=1;startSize=26;horizontalStack=0;resizeParent=1;resizeParentMax=0;resizeLast=0;collapsible=1;marginBottom=0;strokeWidth=1;fillColor=none;" vertex="1" parent="1">
          <mxGeometry x="220" y="400" width="160" height="208" as="geometry" />
        </mxCell>
        <mxCell id="uU9plVafASLb35xvYlGo-37" value="基本信息：id/名称/连接……" style="text;strokeColor=none;fillColor=none;align=left;verticalAlign=top;spacingLeft=4;spacingRight=4;overflow=hidden;rotatable=0;points=[[0,0.5],[1,0.5]];portConstraint=eastwest;" vertex="1" parent="uU9plVafASLb35xvYlGo-36">
          <mxGeometry y="26" width="160" height="26" as="geometry" />
        </mxCell>
        <mxCell id="uU9plVafASLb35xvYlGo-39" value="投放时间：开始、结束" style="text;strokeColor=none;fillColor=none;align=left;verticalAlign=top;spacingLeft=4;spacingRight=4;overflow=hidden;rotatable=0;points=[[0,0.5],[1,0.5]];portConstraint=eastwest;" vertex="1" parent="uU9plVafASLb35xvYlGo-36">
          <mxGeometry y="52" width="160" height="26" as="geometry" />
        </mxCell>
        <mxCell id="uU9plVafASLb35xvYlGo-40" value="最大播放次数" style="text;strokeColor=none;fillColor=none;align=left;verticalAlign=top;spacingLeft=4;spacingRight=4;overflow=hidden;rotatable=0;points=[[0,0.5],[1,0.5]];portConstraint=eastwest;" vertex="1" parent="uU9plVafASLb35xvYlGo-36">
          <mxGeometry y="78" width="160" height="26" as="geometry" />
        </mxCell>
        <mxCell id="uU9plVafASLb35xvYlGo-41" value="剩余播放次数" style="text;strokeColor=none;fillColor=none;align=left;verticalAlign=top;spacingLeft=4;spacingRight=4;overflow=hidden;rotatable=0;points=[[0,0.5],[1,0.5]];portConstraint=eastwest;" vertex="1" parent="uU9plVafASLb35xvYlGo-36">
          <mxGeometry y="104" width="160" height="26" as="geometry" />
        </mxCell>
        <mxCell id="uU9plVafASLb35xvYlGo-56" value="点击广告或跳过次数" style="text;strokeColor=none;fillColor=none;align=left;verticalAlign=top;spacingLeft=4;spacingRight=4;overflow=hidden;rotatable=0;points=[[0,0.5],[1,0.5]];portConstraint=eastwest;" vertex="1" parent="uU9plVafASLb35xvYlGo-36">
          <mxGeometry y="130" width="160" height="26" as="geometry" />
        </mxCell>
        <mxCell id="uU9plVafASLb35xvYlGo-43" value="优先级" style="text;strokeColor=none;fillColor=none;align=left;verticalAlign=top;spacingLeft=4;spacingRight=4;overflow=hidden;rotatable=0;points=[[0,0.5],[1,0.5]];portConstraint=eastwest;" vertex="1" parent="uU9plVafASLb35xvYlGo-36">
          <mxGeometry y="156" width="160" height="26" as="geometry" />
        </mxCell>
        <mxCell id="uU9plVafASLb35xvYlGo-44" value="用户UID" style="text;strokeColor=none;fillColor=none;align=left;verticalAlign=top;spacingLeft=4;spacingRight=4;overflow=hidden;rotatable=0;points=[[0,0.5],[1,0.5]];portConstraint=eastwest;" vertex="1" parent="uU9plVafASLb35xvYlGo-36">
          <mxGeometry y="182" width="160" height="26" as="geometry" />
        </mxCell>
        <mxCell id="uU9plVafASLb35xvYlGo-47" style="edgeStyle=orthogonalEdgeStyle;rounded=0;orthogonalLoop=1;jettySize=auto;html=1;exitX=0.5;exitY=1;exitDx=0;exitDy=0;exitPerimeter=0;" edge="1" parent="1" source="uU9plVafASLb35xvYlGo-45" target="uU9plVafASLb35xvYlGo-46">
          <mxGeometry relative="1" as="geometry" />
        </mxCell>
        <mxCell id="uU9plVafASLb35xvYlGo-45" value="启动" style="strokeWidth=2;html=1;shape=mxgraph.flowchart.start_2;whiteSpace=wrap;fillColor=none;" vertex="1" parent="1">
          <mxGeometry x="840" y="80" width="40" height="40" as="geometry" />
        </mxCell>
        <mxCell id="uU9plVafASLb35xvYlGo-49" style="edgeStyle=orthogonalEdgeStyle;rounded=0;orthogonalLoop=1;jettySize=auto;html=1;exitX=0.5;exitY=1;exitDx=0;exitDy=0;" edge="1" parent="1" source="uU9plVafASLb35xvYlGo-46" target="uU9plVafASLb35xvYlGo-48">
          <mxGeometry relative="1" as="geometry" />
        </mxCell>
        <mxCell id="uU9plVafASLb35xvYlGo-46" value="获取上次&lt;br&gt;广告展示时间" style="rounded=1;whiteSpace=wrap;html=1;absoluteArcSize=1;arcSize=14;strokeWidth=2;fillColor=none;" vertex="1" parent="1">
          <mxGeometry x="800" y="160" width="120" height="40" as="geometry" />
        </mxCell>
        <mxCell id="uU9plVafASLb35xvYlGo-53" value="Y" style="edgeStyle=orthogonalEdgeStyle;rounded=0;orthogonalLoop=1;jettySize=auto;html=1;exitX=0.5;exitY=1;exitDx=0;exitDy=0;exitPerimeter=0;" edge="1" parent="1" source="uU9plVafASLb35xvYlGo-48" target="uU9plVafASLb35xvYlGo-57">
          <mxGeometry relative="1" as="geometry">
            <mxPoint x="860" y="320" as="targetPoint" />
          </mxGeometry>
        </mxCell>
        <mxCell id="uU9plVafASLb35xvYlGo-87" value="N" style="edgeStyle=orthogonalEdgeStyle;rounded=0;orthogonalLoop=1;jettySize=auto;html=1;exitX=0;exitY=0.5;exitDx=0;exitDy=0;exitPerimeter=0;entryX=0;entryY=0.5;entryDx=0;entryDy=0;" edge="1" parent="1" source="uU9plVafASLb35xvYlGo-48" target="uU9plVafASLb35xvYlGo-78">
          <mxGeometry x="-0.9375" relative="1" as="geometry">
            <mxPoint x="800" y="823.3333333333334" as="targetPoint" />
            <Array as="points">
              <mxPoint x="760" y="260" />
              <mxPoint x="760" y="820" />
            </Array>
            <mxPoint as="offset" />
          </mxGeometry>
        </mxCell>
        <mxCell id="uU9plVafASLb35xvYlGo-48" value="是否达到间隔？" style="strokeWidth=2;html=1;shape=mxgraph.flowchart.decision;whiteSpace=wrap;fillColor=none;strokeColor=#66CC00;" vertex="1" parent="1">
          <mxGeometry x="800" y="240" width="120" height="40" as="geometry" />
        </mxCell>
        <mxCell id="uU9plVafASLb35xvYlGo-50" value="&lt;i&gt;&lt;font color=&quot;#b5739d&quot;&gt;兜底12小时&lt;/font&gt;&lt;/i&gt;" style="text;html=1;strokeColor=none;fillColor=none;align=center;verticalAlign=middle;whiteSpace=wrap;rounded=0;" vertex="1" parent="1">
          <mxGeometry x="880" y="220" width="80" height="20" as="geometry" />
        </mxCell>
        <mxCell id="uU9plVafASLb35xvYlGo-54" value="&lt;i&gt;&lt;font color=&quot;#b5739d&quot;&gt;- UID是上次登录的UID&lt;br&gt;- 在投放时间段中&lt;br&gt;- 剩余播放次数 &amp;gt; 0&lt;br&gt;- 用户没有跳过&lt;br&gt;- 用户没有点击过&lt;/font&gt;&lt;/i&gt;" style="text;html=1;strokeColor=none;fillColor=none;align=left;verticalAlign=middle;whiteSpace=wrap;rounded=0;" vertex="1" parent="1">
          <mxGeometry x="920" y="320" width="240" height="40" as="geometry" />
        </mxCell>
        <mxCell id="uU9plVafASLb35xvYlGo-59" value="Y" style="edgeStyle=orthogonalEdgeStyle;rounded=0;orthogonalLoop=1;jettySize=auto;html=1;exitX=0.5;exitY=1;exitDx=0;exitDy=0;exitPerimeter=0;" edge="1" parent="1" source="uU9plVafASLb35xvYlGo-57" target="uU9plVafASLb35xvYlGo-60">
          <mxGeometry relative="1" as="geometry">
            <mxPoint x="860" y="400" as="targetPoint" />
          </mxGeometry>
        </mxCell>
        <mxCell id="uU9plVafASLb35xvYlGo-86" value="N" style="edgeStyle=orthogonalEdgeStyle;rounded=0;orthogonalLoop=1;jettySize=auto;html=1;exitX=0;exitY=0.5;exitDx=0;exitDy=0;exitPerimeter=0;entryX=0;entryY=0.5;entryDx=0;entryDy=0;" edge="1" parent="1" source="uU9plVafASLb35xvYlGo-57" target="uU9plVafASLb35xvYlGo-78">
          <mxGeometry x="-0.9286" relative="1" as="geometry">
            <Array as="points">
              <mxPoint x="760" y="340" />
              <mxPoint x="760" y="820" />
            </Array>
            <mxPoint as="offset" />
          </mxGeometry>
        </mxCell>
        <mxCell id="uU9plVafASLb35xvYlGo-57" value="一定条件下&lt;br&gt;的广告" style="strokeWidth=2;html=1;shape=mxgraph.flowchart.decision;whiteSpace=wrap;fillColor=none;" vertex="1" parent="1">
          <mxGeometry x="800" y="320" width="120" height="40" as="geometry" />
        </mxCell>
        <mxCell id="uU9plVafASLb35xvYlGo-62" value="Y" style="edgeStyle=orthogonalEdgeStyle;rounded=0;orthogonalLoop=1;jettySize=auto;html=1;exitX=0.5;exitY=1;exitDx=0;exitDy=0;exitPerimeter=0;" edge="1" parent="1" source="uU9plVafASLb35xvYlGo-60" target="uU9plVafASLb35xvYlGo-61">
          <mxGeometry relative="1" as="geometry" />
        </mxCell>
        <mxCell id="uU9plVafASLb35xvYlGo-85" value="N" style="edgeStyle=orthogonalEdgeStyle;rounded=0;orthogonalLoop=1;jettySize=auto;html=1;exitX=0;exitY=0.5;exitDx=0;exitDy=0;exitPerimeter=0;entryX=0;entryY=0.5;entryDx=0;entryDy=0;" edge="1" parent="1" source="uU9plVafASLb35xvYlGo-60" target="uU9plVafASLb35xvYlGo-78">
          <mxGeometry x="-0.9167" relative="1" as="geometry">
            <Array as="points">
              <mxPoint x="760" y="420" />
              <mxPoint x="760" y="820" />
            </Array>
            <mxPoint as="offset" />
          </mxGeometry>
        </mxCell>
        <mxCell id="uU9plVafASLb35xvYlGo-60" value="预加载&lt;br&gt;广告图片成功" style="strokeWidth=2;html=1;shape=mxgraph.flowchart.decision;whiteSpace=wrap;fillColor=none;" vertex="1" parent="1">
          <mxGeometry x="800" y="400" width="120" height="40" as="geometry" />
        </mxCell>
        <mxCell id="uU9plVafASLb35xvYlGo-65" style="edgeStyle=orthogonalEdgeStyle;rounded=0;orthogonalLoop=1;jettySize=auto;html=1;exitX=0.5;exitY=1;exitDx=0;exitDy=0;" edge="1" parent="1" source="uU9plVafASLb35xvYlGo-61" target="uU9plVafASLb35xvYlGo-64">
          <mxGeometry relative="1" as="geometry" />
        </mxCell>
        <mxCell id="uU9plVafASLb35xvYlGo-61" value="更新&lt;br&gt;广告展示时间&lt;br&gt;剩余播放次数" style="rounded=1;whiteSpace=wrap;html=1;absoluteArcSize=1;arcSize=14;strokeWidth=2;fillColor=none;" vertex="1" parent="1">
          <mxGeometry x="800" y="480" width="120" height="40" as="geometry" />
        </mxCell>
        <mxCell id="uU9plVafASLb35xvYlGo-67" style="edgeStyle=orthogonalEdgeStyle;rounded=0;orthogonalLoop=1;jettySize=auto;html=1;exitX=0.5;exitY=1;exitDx=0;exitDy=0;" edge="1" parent="1" source="uU9plVafASLb35xvYlGo-64" target="uU9plVafASLb35xvYlGo-68">
          <mxGeometry relative="1" as="geometry">
            <mxPoint x="860" y="640" as="targetPoint" />
          </mxGeometry>
        </mxCell>
        <mxCell id="uU9plVafASLb35xvYlGo-64" value="上报曝光&lt;br&gt;(AppStartPageExposure)" style="rounded=1;whiteSpace=wrap;html=1;absoluteArcSize=1;arcSize=14;strokeWidth=2;fillColor=none;" vertex="1" parent="1">
          <mxGeometry x="800" y="560" width="120" height="40" as="geometry" />
        </mxCell>
        <mxCell id="uU9plVafASLb35xvYlGo-70" value="Y" style="edgeStyle=orthogonalEdgeStyle;rounded=0;orthogonalLoop=1;jettySize=auto;html=1;exitX=1;exitY=0.5;exitDx=0;exitDy=0;exitPerimeter=0;" edge="1" parent="1" source="uU9plVafASLb35xvYlGo-68" target="uU9plVafASLb35xvYlGo-69">
          <mxGeometry relative="1" as="geometry" />
        </mxCell>
        <mxCell id="uU9plVafASLb35xvYlGo-72" value="N" style="edgeStyle=orthogonalEdgeStyle;rounded=0;orthogonalLoop=1;jettySize=auto;html=1;exitX=0.5;exitY=1;exitDx=0;exitDy=0;exitPerimeter=0;" edge="1" parent="1" source="uU9plVafASLb35xvYlGo-68" target="uU9plVafASLb35xvYlGo-71">
          <mxGeometry relative="1" as="geometry" />
        </mxCell>
        <mxCell id="uU9plVafASLb35xvYlGo-68" value="点击广告" style="strokeWidth=2;html=1;shape=mxgraph.flowchart.decision;whiteSpace=wrap;fillColor=none;" vertex="1" parent="1">
          <mxGeometry x="800" y="640" width="120" height="40" as="geometry" />
        </mxCell>
        <mxCell id="uU9plVafASLb35xvYlGo-77" style="edgeStyle=orthogonalEdgeStyle;rounded=0;orthogonalLoop=1;jettySize=auto;html=1;exitX=1;exitY=0.5;exitDx=0;exitDy=0;entryX=1;entryY=0.5;entryDx=0;entryDy=0;" edge="1" parent="1" source="uU9plVafASLb35xvYlGo-69" target="uU9plVafASLb35xvYlGo-75">
          <mxGeometry relative="1" as="geometry">
            <Array as="points">
              <mxPoint x="1101" y="660" />
              <mxPoint x="1101" y="820" />
            </Array>
          </mxGeometry>
        </mxCell>
        <mxCell id="uU9plVafASLb35xvYlGo-69" value="上报点击广告&lt;br&gt;(AppStartPageClick)" style="rounded=1;whiteSpace=wrap;html=1;absoluteArcSize=1;arcSize=14;strokeWidth=2;fillColor=none;" vertex="1" parent="1">
          <mxGeometry x="961" y="640" width="120" height="40" as="geometry" />
        </mxCell>
        <mxCell id="uU9plVafASLb35xvYlGo-74" value="Y" style="edgeStyle=orthogonalEdgeStyle;rounded=0;orthogonalLoop=1;jettySize=auto;html=1;exitX=1;exitY=0.5;exitDx=0;exitDy=0;exitPerimeter=0;" edge="1" parent="1" source="uU9plVafASLb35xvYlGo-71" target="uU9plVafASLb35xvYlGo-73">
          <mxGeometry relative="1" as="geometry" />
        </mxCell>
        <mxCell id="uU9plVafASLb35xvYlGo-79" value="N" style="edgeStyle=orthogonalEdgeStyle;rounded=0;orthogonalLoop=1;jettySize=auto;html=1;exitX=0.5;exitY=1;exitDx=0;exitDy=0;exitPerimeter=0;entryX=0.5;entryY=0;entryDx=0;entryDy=0;" edge="1" parent="1" source="uU9plVafASLb35xvYlGo-71" target="uU9plVafASLb35xvYlGo-78">
          <mxGeometry relative="1" as="geometry" />
        </mxCell>
        <mxCell id="uU9plVafASLb35xvYlGo-71" value="点击跳过" style="strokeWidth=2;html=1;shape=mxgraph.flowchart.decision;whiteSpace=wrap;fillColor=none;" vertex="1" parent="1">
          <mxGeometry x="800" y="720" width="120" height="40" as="geometry" />
        </mxCell>
        <mxCell id="uU9plVafASLb35xvYlGo-76" style="edgeStyle=orthogonalEdgeStyle;rounded=0;orthogonalLoop=1;jettySize=auto;html=1;exitX=1;exitY=0.5;exitDx=0;exitDy=0;entryX=1;entryY=0.5;entryDx=0;entryDy=0;" edge="1" parent="1" source="uU9plVafASLb35xvYlGo-73" target="uU9plVafASLb35xvYlGo-75">
          <mxGeometry relative="1" as="geometry">
            <Array as="points">
              <mxPoint x="1100" y="740" />
              <mxPoint x="1100" y="820" />
            </Array>
          </mxGeometry>
        </mxCell>
        <mxCell id="uU9plVafASLb35xvYlGo-73" value="上报点击跳过&lt;br&gt;(AppStartPageClickSkip)" style="rounded=1;whiteSpace=wrap;html=1;absoluteArcSize=1;arcSize=14;strokeWidth=2;fillColor=none;" vertex="1" parent="1">
          <mxGeometry x="960" y="720" width="120" height="40" as="geometry" />
        </mxCell>
        <mxCell id="uU9plVafASLb35xvYlGo-82" style="edgeStyle=orthogonalEdgeStyle;rounded=0;orthogonalLoop=1;jettySize=auto;html=1;exitX=0;exitY=0.5;exitDx=0;exitDy=0;" edge="1" parent="1" source="uU9plVafASLb35xvYlGo-75" target="uU9plVafASLb35xvYlGo-78">
          <mxGeometry relative="1" as="geometry" />
        </mxCell>
        <mxCell id="uU9plVafASLb35xvYlGo-75" value="增加&lt;br&gt;点击广告或跳过次数" style="rounded=1;whiteSpace=wrap;html=1;absoluteArcSize=1;arcSize=14;strokeWidth=2;fillColor=none;" vertex="1" parent="1">
          <mxGeometry x="960" y="800" width="120" height="40" as="geometry" />
        </mxCell>
        <mxCell id="uU9plVafASLb35xvYlGo-81" style="edgeStyle=orthogonalEdgeStyle;rounded=0;orthogonalLoop=1;jettySize=auto;html=1;exitX=0.5;exitY=1;exitDx=0;exitDy=0;entryX=0.5;entryY=0;entryDx=0;entryDy=0;entryPerimeter=0;" edge="1" parent="1" source="uU9plVafASLb35xvYlGo-78" target="uU9plVafASLb35xvYlGo-80">
          <mxGeometry relative="1" as="geometry" />
        </mxCell>
        <mxCell id="uU9plVafASLb35xvYlGo-78" value="跳转到主页面" style="rounded=1;whiteSpace=wrap;html=1;absoluteArcSize=1;arcSize=14;strokeWidth=2;fillColor=none;" vertex="1" parent="1">
          <mxGeometry x="800" y="800" width="120" height="40" as="geometry" />
        </mxCell>
        <mxCell id="uU9plVafASLb35xvYlGo-80" value="结束" style="strokeWidth=2;html=1;shape=mxgraph.flowchart.terminator;whiteSpace=wrap;fillColor=none;" vertex="1" parent="1">
          <mxGeometry x="840" y="880" width="40" height="40" as="geometry" />
        </mxCell>
      </root>
    </mxGraphModel>
  </diagram>
</mxfile>
